<?xml version="1.0" standalone="no"?>
<!DOCTYPE svg PUBLIC "-//W3C//DTD SVG 20010904//EN"
 "http://www.w3.org/TR/2001/REC-SVG-20010904/DTD/svg10.dtd">
<svg version="1.0" xmlns="http://www.w3.org/2000/svg"
 width="284.000000pt" height="265.000000pt" viewBox="0 0 284.000000 265.000000"
 preserveAspectRatio="xMidYMid meet">

<g transform="translate(0.000000,265.000000) scale(0.100000,-0.100000)"
fill="#B113F6" stroke="none">
<path d="M1030 2104 c-33 -14 -40 -37 -40 -144 0 -140 7 -150 99 -150 96 0
101 7 101 146 0 137 -5 146 -86 151 -33 1 -66 0 -74 -3z"/>
<path d="M1770 2104 c-33 -14 -40 -37 -40 -144 0 -140 7 -150 99 -150 96 0
101 7 101 146 0 137 -5 146 -86 151 -33 1 -66 0 -74 -3z"/>
<path d="M684 1930 c-11 -4 -33 -22 -47 -40 l-27 -32 0 -664 c0 -734 -2 -706
63 -741 30 -17 84 -18 782 -18 822 0 797 -2 835 60 19 32 20 49 20 692 l0 660
-23 34 c-34 50 -59 59 -174 59 l-103 0 0 -47 c0 -61 -25 -111 -70 -141 -31
-21 -44 -23 -122 -20 -76 3 -90 6 -113 28 -40 37 -55 73 -55 130 l0 50 -189 0
-188 0 -6 -60 c-6 -69 -24 -102 -70 -131 -27 -17 -46 -19 -119 -17 -76 3 -90
6 -113 28 -40 37 -55 73 -55 130 l0 50 -102 -1 c-57 0 -112 -4 -124 -9z m1484
-862 l2 -488 -710 0 -710 0 0 490 0 490 708 -2 707 -3 3 -487z"/>
<path d="M1527 1196 c-80 -80 -149 -146 -154 -146 -4 0 -33 26 -65 57 l-58 57
-32 -31 c-18 -17 -45 -42 -60 -55 -16 -14 -28 -29 -28 -34 0 -5 54 -63 119
-128 l119 -119 49 41 c26 22 122 115 212 205 184 185 178 168 93 251 l-50 48
-145 -146z"/>
</g>
</svg>
